<?xml version="1.0" encoding="iso-8859-1"?>
<!-- Generator: Adobe Illustrator 21.1.0, SVG Export Plug-In . SVG Version: 6.00 Build 0)  -->
<svg version="1.1" id="Layer_1" xmlns="http://www.w3.org/2000/svg" xmlns:xlink="http://www.w3.org/1999/xlink" x="0px" y="0px"
	 viewBox="0 0 24 24" enable-background="new 0 0 24 24" xml:space="preserve">
<g>
	<path fill="#303C42" d="M15.546875,9.2900391c-0.6670532-1.2365112-1.3504639-2.5234375-1.4969482-4.8792114
		c0.2406006-0.3123169,0.3550415-0.7043457,0.305542-1.0968628l-0.25-2C14.0117188,0.5649414,13.3720703,0,12.6171875,0h-1.234375
		c-0.7548828,0-1.3945313,0.5649414-1.4882813,1.3139648l-0.25,1.9995117
		c-0.0494995,0.3929443,0.0649414,0.7850342,0.305542,1.0973511C9.8035889,6.7666016,9.1201782,8.0535278,8.453125,9.2900391
		C7.7382813,10.6147461,7,11.9838867,7,14.5v2v4V22c0,1.1030273,0.8974609,2,2,2h6c1.1025391,0,2-0.8969727,2-2v-1.5v-4v-2
		C17,11.9838867,16.2617188,10.6147461,15.546875,9.2900391z"/>
	<rect x="8" y="17" fill="#E6E6E5" width="8" height="3"/>
	<path fill="#FFCB29" d="M10.8867188,1.4379883C10.9179688,1.1884766,11.1308594,1,11.3828125,1h1.234375
		c0.2519531,0,0.4648438,0.1884766,0.4960938,0.4379883l0.25,2.0004883c0.0185547,0.144043-0.0244141,0.2832031-0.1210938,0.3920898
		C13.1464844,3.9399414,13.0126953,4,12.8671875,4h-1.734375c-0.1455078,0-0.2792969-0.0600586-0.375-0.1694336
		c-0.0966797-0.1088867-0.1396484-0.2480469-0.1210938-0.3925781L10.8867188,1.4379883z"/>
	<path opacity="0.2" fill="#FFFFFF" d="M11.5458374,3.8305664c-0.0353394-0.1088867-0.0510864-0.2480469-0.0443115-0.3925781
		l0.0914307-2C11.6043701,1.1884766,11.6821899,1,11.774353,1h-0.3915405c-0.2519531,0-0.4648438,0.1884766-0.4960938,0.4379883
		l-0.25,2c-0.0185547,0.1445313,0.0244141,0.2836914,0.1210938,0.3925781C10.8535156,3.9399414,10.9873047,4,11.1328125,4h0.5501099
		C11.6296997,4,11.5808105,3.9399414,11.5458374,3.8305664z"/>
	<path opacity="0.1" fill="#010101" d="M13.1132813,1.4379883C13.0820313,1.1884766,12.8691406,1,12.6171875,1H12.225647
		c0.0921631,0,0.1699829,0.1884766,0.1813965,0.4379883l0.0914307,2.0004883
		c0.0067749,0.144043-0.0089722,0.2832031-0.0443115,0.3920898C12.4191895,3.9399414,12.3703003,4,12.3170776,4h0.5501099
		c0.1455078,0,0.2792969-0.0600586,0.375-0.1694336c0.0966797-0.1088867,0.1396484-0.2480469,0.1210938-0.3920898
		L13.1132813,1.4379883z"/>
	<path fill="#FFCB29" d="M10.9066772,4.9758301C10.9814453,4.9873047,11.0561523,5,11.1328125,5h1.734375
		c0.0766602,0,0.1513672-0.0126953,0.2261353-0.0241699c0.2225342,2.2643433,0.9342651,3.6033325,1.5736694,4.7893066
		c0.119873,0.222229,0.2368774,0.4438477,0.3511353,0.6677856C13.2693481,13.7301025,12.2692261,14,12,14
		s-1.2693481-0.2698975-3.0181274-3.5670776c0.1142578-0.223938,0.2312622-0.4455566,0.3511353-0.6677856
		C9.9724121,8.5791626,10.6841431,7.2401733,10.9066772,4.9758301z"/>
	<path opacity="0.2" fill="#FFFFFF" d="M9.84375,10.4329224c0.081604-0.223938,0.1652222-0.4455566,0.2508545-0.6677856
		C10.5497437,8.5836182,11.0557251,7.2489624,11.2166138,5h-0.0838013c-0.0766602,0-0.1513672-0.0126953-0.2261353-0.0241699
		c-0.2225342,2.2643433-0.9342651,3.6033325-1.5736694,4.7893066c-0.119873,0.222229-0.2368774,0.4438477-0.3511353,0.6677856
		C10.7306519,13.7301025,11.7307739,14,12,14C11.8076782,14,11.0931396,13.7301025,9.84375,10.4329224z"/>
	<path opacity="0.1" fill="#010101" d="M14.6669922,9.7651367c-0.6394043-1.1859741-1.3511353-2.5249634-1.5736694-4.7893066
		C13.0185547,4.9873047,12.9438477,5,12.8671875,5h-0.0838013c0.1608887,2.2489624,0.6668701,3.5836182,1.1220093,4.7651367
		c0.0856323,0.222229,0.1692505,0.4438477,0.2508545,0.6677856C12.9068604,13.7301025,12.1923218,14,12,14
		c0.2692261,0,1.2693481-0.2698975,3.0181274-3.5670776C14.9038696,10.2089844,14.7868652,9.9873657,14.6669922,9.7651367z"/>
	<g>
		<path fill="#676767" d="M8,16v-1.5c0-1.2236938,0.1923828-2.1321411,0.4744873-2.9134521
			C10.4187622,14.9916992,11.5935059,15,12,15s1.5812378-0.0083008,3.5255127-3.4134521
			C15.8076172,12.3678589,16,13.2763062,16,14.5V16H8z"/>
		<path fill="#676767" d="M15,23H9c-0.5517578,0-1-0.4487305-1-1v-1h8v1C16,22.5512695,15.5517578,23,15,23z"/>
	</g>
	<path opacity="0.2" fill="#010101" d="M8,16v-1.5c0-1.2236938,0.1923828-2.1321411,0.4744873-2.9134521
		C10.4187622,14.9916992,11.5935059,15,12,15s1.5812378-0.0083008,3.5255127-3.4134521C15.8076172,12.3678589,16,13.2763062,16,14.5
		V16H8z"/>
	<path opacity="0.2" fill="#010101" d="M15,23H9c-0.5517578,0-1-0.4487305-1-1v-1h8v1C16,22.5512695,15.5517578,23,15,23z"/>
	<rect x="8" y="17" opacity="0.2" fill="#FFFFFF" width="1.5" height="3"/>
	<rect x="14.5" y="17" opacity="0.1" fill="#010101" width="1.5" height="3"/>
	<path opacity="0.2" fill="#FFFFFF" d="M9.5524292,13.2507324c-0.3287354-0.437561-0.6870117-0.9795532-1.0779419-1.6641846
		C8.1923828,12.3678589,8,13.2763062,8,14.5V16h1.5v-1.5C9.5,14.038208,9.5216064,13.6328125,9.5524292,13.2507324z"/>
	<path opacity="0.1" fill="#010101" d="M15.5255127,11.5865479c-0.3909302,0.6846313-0.7492065,1.2266235-1.0779419,1.6641846
		C14.4783936,13.6328125,14.5,14.038208,14.5,14.5V16H16v-1.5C16,13.2763062,15.8076172,12.3678589,15.5255127,11.5865479z"/>
	<path opacity="0.2" fill="#FFFFFF" d="M9.5,22v-1H8v1c0,0.5512695,0.4482422,1,1,1h1.125C9.7801514,23,9.5,22.5512695,9.5,22z"/>
	<path opacity="0.2" fill="#010101" d="M14.5,21v1c0,0.5512695-0.2801514,1-0.625,1H15c0.5517578,0,1-0.4487305,1-1v-1H14.5z"/>
	<circle fill="#303C42" cx="12" cy="11" r="1"/>
	<linearGradient id="SVGID_1_" gradientUnits="userSpaceOnUse" x1="5.8893394" y1="9.7321062" x2="19.8841763" y2="16.258007">
		<stop  offset="0" style="stop-color:#FFFFFF;stop-opacity:0.2"/>
		<stop  offset="1" style="stop-color:#FFFFFF;stop-opacity:0"/>
	</linearGradient>
	<path fill="url(#SVGID_1_)" d="M15.546875,9.2900391c-0.6670532-1.2365112-1.3504639-2.5234375-1.4969482-4.8792114
		c0.2406006-0.3123169,0.3550415-0.7043457,0.305542-1.0968628l-0.25-2C14.0117188,0.5649414,13.3720703,0,12.6171875,0h-1.234375
		c-0.7548828,0-1.3945313,0.5649414-1.4882813,1.3139648l-0.25,1.9995117
		c-0.0494995,0.3929443,0.0649414,0.7850342,0.305542,1.0973511C9.8035889,6.7666016,9.1201782,8.0535278,8.453125,9.2900391
		C7.7382813,10.6147461,7,11.9838867,7,14.5v2v4V22c0,1.1030273,0.8974609,2,2,2h6c1.1025391,0,2-0.8969727,2-2v-1.5v-4v-2
		C17,11.9838867,16.2617188,10.6147461,15.546875,9.2900391z"/>
</g>
<g>
</g>
<g>
</g>
<g>
</g>
<g>
</g>
<g>
</g>
<g>
</g>
<g>
</g>
<g>
</g>
<g>
</g>
<g>
</g>
<g>
</g>
<g>
</g>
<g>
</g>
<g>
</g>
<g>
</g>
</svg>
